<svg xmlns="http://www.w3.org/2000/svg" viewBox="0 0 1533.18 447"><defs><style>.cls-1,.cls-2{fill:#fff;}.cls-2{font-size:212px;font-family:Lato-Bold, Lato;font-weight:700;letter-spacing:0em;}.cls-3{letter-spacing:0em;}</style></defs><title>logo</title><g id="Layer_2" data-name="Layer 2"><g id="Layer_1-2" data-name="Layer 1"><path class="cls-1" d="M1464.52,430.82c2.12-1.5,3.58-2.67,3.58-2.67s4,.63,6.37,0,13.53-7,16.56-9.55,2.54-6.37.32-9.71-11.94-12.1-11.94-12.1-.32-2.07-3.66-7-12.9-9.08-12.9-9.08a136.47,136.47,0,0,1-7.32-11.94c-1.91-4-17.67-25.63-23.09-31s-20.22-13.37-20.22-13.37.64-5.57.8-8.6-1.75-10.19-1.75-10.19-.63-17-2.39-27.54,10.51-24.21,12.26-36.62-7.48-26-13.54-33.59-25.15-26.75-34.23-33.59-35.19-31.84-47.44-45.7-32-9.71-32-9.71-2.54-17-22.45-16.08-25.63,20.86-25.63,20.86a71.47,71.47,0,0,0-9.71,2.07c-4,1.27-4.78,5.57-3.19,8.75s8.12,3.34,8.12,3.34-5.09,7.79-8,13-11.46,22.29-11.46,22.29a21.32,21.32,0,0,1-5.89-.64c-3-.8-8.28,3.19-10.19,7s5.1,22.3,8.6,27.07,11.3,1.43,11.3,1.43l1.43,5.57a19,19,0,0,0-4,2.71c-2.22,1.91-4.93,4.61-4.3,8.44s9.87,4.46,9.87,4.46l1.27,10.19-5.57,5.09s7.64,35,9.23,44.1,9.71,60.5,11.3,69.89,6.69,6.84,13.06,5.73,9.71-5.41,9.39-7.32-3.18-25.79-5.09-37.73-14.33-78-14.33-78l-3.82-4.14s8.59.48,11.3,0,4-4.45,4-4.45l3.34,2.87s17.19,10.34,22.29,12.25,12.26-6.21,14.17-10,7.32-21.49,7.32-21.49,4.61,4,10,9.07,22.44,14.8,22.44,14.8a20.82,20.82,0,0,1,.64,4.62c0,2.23,4.61,3.66,4.78,5.89s-12.9,19.74-12.9,19.74-3-8.12-6.21-11-5.41-1.91-8,.8-11.46,21.81-14,27.06-3.35,17.84-3.35,23.41-7.64,54.61-9.07,63.68S1288,400,1288,400s-10.51,6.37-14.65,9.39-9.71,8.12-8.76,12.1,16.4,3.82,24.68,3.66,9.55-3.35,11.3-4.62,5.25,1.12,7.32,1.44,14.33-2.24,17.52-3,5.89-4.93,4.61-8-2.86-13-4.61-19.58S1334,364,1336.9,357.3s8.28-16.87,8.28-20.54-.48-22-1-25,13.37-16.56,13.37-16.56S1369.55,318,1371,319.88s-4.78,1.28-4.78,1.28-10.51-5.73-15.28-2.86,13.85,26.74,17.83,31.52,11.78,9.39,14.81,10.35,16.08,10.82,21.5,16.08,33,26.91,37.09,31.68a14.22,14.22,0,0,1,2.87,13.54c-1,3.5-7.64,5.25-11.46,8.12a10.06,10.06,0,0,0-1.36,1.24H186a7.38,7.38,0,0,0-1.65-6.14c-3.41-3.69-14.48-14.48-16.47-21.3s-1.42-29-.28-34.64,13.63-22.43,15.33-28.68,11.65-28.4,14.2-33.8,11.36-21.29,5.11-28.39-32.94-33.51-32.94-33.51,11.65.85,16.47-.86,14.77-7.38,14.77-7.38a88.65,88.65,0,0,0,16.75-1.71c7.39-1.7,21.86-7.67,23.29-11.64s9.61-15.84,9.61-15.84,4.81,3,7.67,3a51.06,51.06,0,0,0,7.06-.75s10.67,12.47,14.73,11.57,2.1-5,2.1-5,2.86-.15,3.76-1.35.6-3.46.6-3.46l4.51-2.7s4.05,1.8,5.26.9,1.2-9.17,3-11.27,6.31-2.26,7.06-3.61,2.1-10.22,2.85-10.67,6.61-1.36,5.26-7.67-13.53-21.95-17.13-24-17.74-5.26-22.39-1.2-15.93,17.89-15.93,17.89-9-12.47-11.12-15.78-16.23-21.49-18.64-24.35-18.49-17.28-21.64-23.9-14.13-27.35-18-35.17S169.6,35.29,169.6,35.29s.9-11.87.75-15.18.6-12.17-.75-13.08-4.66,0-4.66,0-.76-3.15-2-3.75-4.36.75-4.36.75-.9-2-2.1-2.4-3.76,1.2-3.76,1.2S148.71-1.53,148.1.57s1.81,6.31,1.81,6.31A33,33,0,0,0,146,12.45c-1,2.25-3.15,12.18-2,13.83S155.17,40.11,157.87,44,172,73,175,80.84s13.83,29.31,14.43,33.06,12.78,30.51,12.78,30.51-21,8.41-25.85,7.21-17.58-3-21.79-.6-6.76,6.92-10.07,6.92-15.78,1.2-19.24,4.81S99.71,178.08,94.3,183,78.67,202,79.72,209.79s3,26.3,2.25,31.26-7.51,26.6-7.67,34.27.52,22.16-1.89,30.42S67,328.59,65.36,332.19s-4.21,3.31-6.62,8.72S46.12,361.5,48.07,364.66s5.26,9,5.26,9l-2.4,5.71s-6.62,6.91-9,8.72S27.79,395.92,29,399.83s11.28,14.28,14.58,16.68,12.33,3.76,13.83,6.91c.67,1.41,3.25,4.37,6.46,7.4H0V447H1533.18V430.82ZM1269.88,209.06c.79,4-4,6.69-4,6.69a74.89,74.89,0,0,0-7.16-4.94c-2.87-1.59-8.92,1.28-8.92,1.28l-15.44-7s3-4.61,2.71-9.23-1.91-13.06-1.91-13.06,2.86-4.94,5.57-10.35,15-20.69,15-20.69,3.34,5.89,5.89,7.64,9.39,1.75,9.39,1.75-1.75,2.08-2.39,7,5.89,4,5.89,4a141.09,141.09,0,0,0-8.75,15.13C1262.72,193.78,1269.08,205.08,1269.88,209.06ZM95.71,430.79c-4.66-3.46-13.07-8.87-15.48-17s-3.6-20.14-3.31-22.39,5.11-18.94,5.41-23.15,12.18-32,13.68-35.47,19.39-25.85,23-31.11,15.61-25,15.61-25,12.78,7.67,16.47,9.09,9.37,5.4,9.37,5.4-5.68,21.58-8.8,29-14.77,31-16.19,36.92S118.72,377,118.72,377l11.36,12.78s-8.8,12.49-7.38,17.89,7.38,10.22,10.22,11.07a57.57,57.57,0,0,0,7.66,1.42,24.25,24.25,0,0,0,7.82,10.69H95.75Z"/><text class="cls-2" transform="translate(329.61 359.29)">G<tspan class="cls-3" x="153.59" y="0">ame 11</tspan></text></g></g></svg>